<svg width="81" height="30" viewBox="0 0 81 30" fill="none" xmlns="http://www.w3.org/2000/svg">
<path d="M77.2415 10.7898H64.5428V8.2485H77.2415V3.1685H56.9241V15.8672H69.6228V18.4085H56.9241V23.4885H77.2415V10.7898Z" fill="black"/>
<path d="M54.3855 3.1685H49.3055V23.4858H54.3855V3.1685Z" fill="black"/>
<path d="M26.4495 3.1685V8.2485H41.6868V10.7898H26.4495V23.4885H31.5268V15.9445L39.1481 23.4885H46.7668L38.8175 15.8672H46.7668V3.1685H26.4495Z" fill="black"/>
<path d="M11.2095 15.8672H16.2761V10.8005H11.2095V15.8672ZM12.4815 12.0592H15.0201V14.5978H12.4815V12.0592Z" fill="black"/>
<path d="M8.6708 3.1685H4.22546C4.05747 3.16978 3.89666 3.23678 3.77746 3.35517C3.71816 3.41426 3.67114 3.4845 3.63911 3.56185C3.60707 3.6392 3.59065 3.72212 3.5908 3.80583V22.8512C3.59065 22.9349 3.60707 23.0178 3.63911 23.0952C3.67114 23.1725 3.71816 23.2427 3.77746 23.3018C3.89693 23.4195 4.05779 23.4856 4.22546 23.4858H16.2895V18.4192H8.6708V3.1685Z" fill="black"/>
<path d="M23.2735 3.1685H11.2095V8.2485H18.8308V15.8672H23.8975V3.80583C23.899 3.63805 23.8349 3.47631 23.7188 3.35517C23.5998 3.23813 23.4404 3.1713 23.2735 3.1685Z" fill="black"/>
<path d="M23.9108 18.4085H18.8308V29.8378H23.9108V18.4085Z" fill="black"/>
<path d="M10.6788 0.3125H1.15347C0.985358 0.313202 0.824335 0.380294 0.705464 0.499165C0.586593 0.618036 0.519501 0.779059 0.518799 0.947167V10.4725H1.78813V2.20583C1.79161 2.03958 1.85993 1.88128 1.9785 1.7647C2.09707 1.64812 2.25651 1.58249 2.4228 1.58183H10.6895L10.6788 0.3125Z" fill="black"/>
<path d="M79.2495 16.8192V25.0858C79.2488 25.2539 79.1817 25.415 79.0628 25.5338C78.9439 25.6527 78.7829 25.7198 78.6148 25.7205H70.3481V26.9792H79.8735C79.9576 26.9802 80.0411 26.9646 80.1192 26.9332C80.1973 26.9018 80.2684 26.8553 80.3284 26.7963C80.3884 26.7373 80.4361 26.667 80.4688 26.5894C80.5014 26.5119 80.5185 26.4286 80.5188 26.3445V16.8192H79.2495Z" fill="black"/>
</svg>
